<svg width="40" height="40" viewBox="0 0 40 40" fill="none" xmlns="http://www.w3.org/2000/svg">
<path d="M24.5954 0.0657682C24.0309 0.163407 23.3801 0.314049 22.7378 0.498168C21.339 0.897092 19.8485 1.42713 19.765 1.55267C19.7233 1.61962 19.4453 2.47047 19.1171 3.53892C19.0253 3.83742 18.9336 4.10802 18.9141 4.1387C18.8919 4.16939 18.6027 4.32282 18.2634 4.48183C17.1511 5.00629 16.1333 5.5726 15.046 6.27002C14.5565 6.58525 14.2701 6.78332 13.5443 7.31335C13.1939 7.57 13.18 7.57559 13.1216 7.53374C13.091 7.50584 12.8658 7.32172 12.6266 7.12366C11.7173 6.37044 11.7256 6.37602 11.6728 6.41787C11.5059 6.54898 10.6133 7.32172 10.2768 7.6258C9.4954 8.33159 8.61109 9.21592 7.81577 10.0835C7.64892 10.2648 7.47651 10.4545 7.43201 10.5047L7.35137 10.5912L7.94091 11.2942C8.47761 11.9359 8.52766 12.0028 8.49986 12.0586C8.48039 12.0893 8.38028 12.2232 8.27461 12.3543C7.25682 13.6013 6.08887 15.3281 5.46596 16.4914C5.35472 16.7034 5.29911 16.7759 5.23237 16.8066C5.18509 16.8289 4.6039 16.9824 3.93928 17.1498C3.12171 17.3562 2.71571 17.4734 2.68234 17.5068C2.5711 17.6184 1.94819 18.9658 1.55609 19.9339C1.17234 20.8907 0.546649 22.8547 0.607828 22.9188C0.61617 22.9272 1.1918 22.8212 1.88423 22.6845C2.57666 22.5478 3.14674 22.4362 3.14952 22.439C3.1523 22.439 3.11337 22.6566 3.06053 22.9216C2.81582 24.1658 2.75464 24.813 2.7741 25.9624L2.78801 26.749L1.65899 27.8593C1.03886 28.4703 0.413169 29.0812 0.274127 29.2151C0.132304 29.3518 0.00994701 29.4857 0.00160449 29.5108C-0.00673804 29.5359 0.0182895 29.7563 0.0572213 30.0018C0.31584 31.6059 0.749651 32.8584 1.54219 34.2756L1.73129 34.6159L2.06221 34.3035C2.24574 34.1333 2.63784 33.7595 2.93539 33.475C3.46097 32.9728 4.13115 32.3424 4.4287 32.069C4.50935 31.9964 4.58443 31.9378 4.59834 31.9378C4.61224 31.9378 4.72347 32.122 4.84305 32.3451L5.06274 32.7496L5.50767 33.1876C5.98876 33.6619 6.26962 33.899 6.70343 34.1947C7.32634 34.6187 8.00765 34.9674 8.76404 35.2408C8.97816 35.3189 9.15335 35.3971 9.14779 35.411C9.13945 35.4528 8.67783 36.9118 8.53879 37.3498C8.27461 38.17 7.9715 39.1826 7.95481 39.3054L7.93535 39.4365L8.18284 39.4951C9.50652 39.8047 13.4136 40.0921 14.6844 39.9721C15.0738 39.9331 15.1878 39.8996 15.2684 39.7936C15.3936 39.629 15.6244 38.9623 15.8663 38.0584C16.0526 37.3721 16.4419 35.7597 16.467 35.5728C16.4837 35.4333 16.4892 35.4249 16.5865 35.3998C17.6933 35.1153 18.319 34.9144 19.245 34.5462C20.4408 34.072 21.9869 33.2908 23.0687 32.613C23.5303 32.3228 24.2923 31.8207 24.5703 31.6198C24.7122 31.5194 24.8401 31.4357 24.8595 31.4357C24.8762 31.4357 24.9068 31.4608 24.9235 31.4915C24.943 31.5194 25.1738 31.7984 25.438 32.1108C25.7021 32.4233 26.1471 32.9533 26.4279 33.2908C26.7116 33.6284 26.9925 33.9576 27.0536 34.0217L27.1649 34.1389L27.3289 34.0217C28.0992 33.4805 29.7622 32.0187 30.8995 30.8889C32.1036 29.6894 33.6359 27.89 34.6398 26.498C35.1292 25.8201 35.1765 25.7448 35.1348 25.7029C35.1125 25.6862 34.4924 25.1701 33.7527 24.5591C32.7266 23.7139 32.4123 23.4405 32.4262 23.4042C32.4346 23.3791 32.5541 23.1783 32.6876 22.9551C33.4384 21.7165 34.0419 20.5085 34.5758 19.1751C34.9484 18.2461 35.1653 17.5766 35.4184 16.5835C35.4907 16.2933 35.563 16.0478 35.5797 16.0395C35.5936 16.0283 36.5252 15.8386 37.6486 15.6182L39.6898 15.2137L39.7621 14.7395C40.1236 12.4129 40.0735 10.329 39.6091 8.33717C39.5758 8.1921 39.5452 8.06657 39.5424 8.06378C39.5396 8.0582 38.6219 8.28695 37.504 8.5715C36.3889 8.85605 35.4685 9.09038 35.4601 9.09038C35.4518 9.09038 35.424 9.02064 35.3989 8.93416C35.2738 8.49897 34.8984 7.65091 34.6231 7.17945C34.1976 6.44856 33.7888 5.90736 33.2049 5.302L32.9824 5.06766L33.177 4.88354C34.3089 3.80394 35.4407 2.72712 35.6464 2.53463L35.8967 2.29472L35.7465 2.1664C34.9818 1.5164 33.4941 0.75203 32.2316 0.364265C31.617 0.174566 31.4029 0.124354 31.325 0.143882C31.2889 0.155041 30.894 0.509328 30.4518 0.936149C30.0069 1.36297 29.5314 1.81211 29.3951 1.93486C29.2561 2.05481 29.0002 2.29751 28.825 2.46768C28.6498 2.64064 28.4746 2.79408 28.4357 2.80802C28.3857 2.82755 28.255 2.81639 27.9852 2.77176C27.3846 2.66854 27.0842 2.64343 26.2528 2.62949C25.7049 2.61833 25.3212 2.62669 24.9597 2.65459C24.676 2.67691 24.4424 2.69365 24.4396 2.69086C24.4369 2.68807 24.5759 2.09108 24.7511 1.36297C24.9263 0.634865 25.0709 0.0295038 25.0709 0.0155554C25.0709 -0.0123414 25.0236 -0.0067634 24.5954 0.0657682ZM25.4185 4.37582C26.0192 4.43162 26.4836 4.52646 27.1037 4.72732C27.5903 4.88354 27.7627 4.95887 27.849 5.05371C27.9074 5.11788 27.9129 5.14577 27.899 5.26852C27.8545 5.64234 27.4902 5.99942 26.9952 6.15006C26.7589 6.2198 26.567 6.18633 26.503 6.06358C26.3306 5.73161 26.1443 5.5447 25.8384 5.39405C25.5325 5.24341 25.3573 5.20715 24.8762 5.1932C24.3812 5.17646 24.0114 5.2183 23.4719 5.355C22.3484 5.63955 21.7061 5.96594 21.1054 6.56572C20.6243 7.04554 20.3212 7.54769 20.171 8.10841C20.1015 8.37064 20.0904 8.88673 20.146 9.11828C20.235 9.48093 20.4575 9.75711 20.7578 9.87707C20.8857 9.92728 20.9664 9.93844 21.2055 9.93844C21.656 9.93565 22.101 9.80175 22.5487 9.53115C22.8212 9.36935 23.2244 8.95926 23.3301 8.74446C23.4219 8.55197 23.4385 8.31764 23.3662 8.18094C23.2884 8.03309 23.0882 7.8685 22.913 7.81829C22.6015 7.72902 22.4458 7.8155 22.2511 8.19489C22.0926 8.50455 22.0092 8.60777 21.8868 8.64124C21.7839 8.66914 21.5837 8.63566 21.517 8.58266C21.3724 8.45991 21.3529 8.15863 21.4697 7.89361C21.6977 7.38868 22.3985 7.05113 23.2216 7.04834C23.6026 7.04834 23.8279 7.09297 24.0781 7.22688C24.5954 7.50305 24.6148 8.10004 24.1282 8.78352C23.6388 9.47257 21.8396 11.4086 21.695 11.4058C21.6616 11.403 21.3307 11.3612 20.9552 11.311C20.5798 11.2608 20.2712 11.2217 20.2712 11.2217C20.2684 11.2245 20.2823 11.5704 20.3045 11.9916L20.3435 12.7588L19.8346 13.2693C19.5565 13.5511 18.9586 14.1453 18.5053 14.5888L17.6794 15.3951L17.4709 15.1802C17.2178 14.9208 16.7923 14.4131 16.6422 14.1899C16.3196 13.7157 16.3279 13.4562 16.7117 12.2874C16.7784 12.0865 16.8313 11.9191 16.8257 11.9135C16.8229 11.9107 16.5393 12 16.1972 12.1144C15.8552 12.2288 15.5076 12.332 15.4269 12.3431C15.2851 12.3599 15.2795 12.3599 15.1878 12.2595C15.0515 12.1172 14.9375 11.9052 14.8318 11.6011C14.7512 11.364 14.7428 11.3054 14.7428 11.0292C14.7428 10.7502 14.7512 10.7 14.8318 10.4964C14.982 10.1142 15.3157 9.67621 15.6939 9.35819C16.3335 8.82815 17.0565 8.49618 17.5904 8.49339C17.8657 8.4906 17.9909 8.5436 18.0715 8.69983C18.1744 8.89789 18.0437 9.42514 17.824 9.70411C17.621 9.96076 17.3207 10.1505 17.1149 10.1505C16.9814 10.1505 16.9786 10.1365 17.0927 9.80175C17.19 9.5172 17.1789 9.41956 17.0426 9.36656C16.8452 9.29124 16.556 9.41398 16.2362 9.71248C15.6494 10.262 15.6716 11.0041 16.2779 11.2412C16.4642 11.3138 16.8924 11.3305 17.076 11.2719C17.4709 11.1436 17.774 10.9455 18.1494 10.5689C18.611 10.103 19.0142 9.45025 19.1978 8.86721C19.2617 8.66356 19.2728 8.57987 19.2728 8.28137C19.2728 7.94103 19.2701 7.92708 19.1811 7.74575C19.0865 7.55048 18.9391 7.39984 18.75 7.3022C18.4525 7.14597 17.9269 7.09576 17.4959 7.17666C16.9592 7.27988 16.2084 7.5979 15.6995 7.93824C14.8346 8.51292 14.2673 9.11549 13.8863 9.86312C13.6917 10.2453 13.6528 10.2732 13.4581 10.1923C13.3107 10.1309 13.2579 10.0779 13.1633 9.89102C13.0048 9.57299 13.0326 9.33866 13.2718 8.96484C13.6277 8.41528 14.5704 7.65091 15.7829 6.92838C18.2968 5.4359 20.794 4.59621 23.3051 4.40372C24.0726 4.34514 24.9569 4.33398 25.4185 4.37582ZM29.751 6.25328C29.8901 6.33697 30.1153 6.56851 30.5074 7.03997C30.8578 7.46121 31.0024 7.66485 31.236 8.06378C33.152 11.3584 32.6542 16.1427 29.8957 20.9326C29.5453 21.5407 29.4146 21.7472 29.2004 22.0205C28.7944 22.545 28.3328 22.8602 27.8184 22.9662C27.3401 23.0667 26.9062 22.9913 26.3362 22.7152C26.0887 22.5924 25.6243 22.2939 25.6076 22.2409C25.602 22.227 25.6771 22.1935 25.7717 22.1656C26.0831 22.0735 26.6588 21.8336 27.1287 21.5993C28.2911 21.019 28.8584 20.5587 29.4396 19.7191C29.8373 19.1472 30.1737 18.4163 30.285 17.889C30.4713 17.0075 30.1654 15.9335 29.5341 15.2611C29.1865 14.8873 28.7778 14.6697 28.1993 14.5554C27.9574 14.5051 27.3567 14.5135 27.0453 14.5693C26.2694 14.7088 25.0959 15.2723 24.5509 15.7717C23.978 16.2933 23.5804 17.3032 23.6777 17.9922C23.7305 18.3828 23.8529 18.6143 24.0948 18.7817C24.423 19.0105 24.9819 19.0412 25.5853 18.8682C26.0442 18.7343 26.339 18.5669 26.656 18.2573C26.8729 18.0425 26.9702 17.8667 26.9813 17.6547C26.9952 17.465 26.9535 17.3813 26.8117 17.3032C26.6643 17.2195 26.4836 17.2028 26.1387 17.2362C25.9747 17.253 25.8356 17.2586 25.8245 17.2502C25.8162 17.239 25.8078 17.1777 25.8106 17.1079C25.8134 16.9517 25.9635 16.7174 26.1499 16.5835C26.4224 16.3826 26.8312 16.2878 27.1816 16.3408C27.5319 16.3965 27.7405 16.55 27.8545 16.8373C27.9101 16.9796 27.9185 17.0465 27.9185 17.3897C27.9185 17.7077 27.9074 17.8249 27.8545 18.0174C27.6181 18.91 26.948 19.5517 25.8829 19.9115C24.7344 20.2965 23.2745 20.2407 22.3401 19.7721C21.8284 19.5182 21.5337 19.1862 21.4558 18.7734C21.4336 18.659 21.4391 18.5251 21.4808 18.1875C21.5615 17.5403 21.6338 16.7648 21.6199 16.7508C21.6115 16.7425 21.2306 16.8624 20.7689 17.0131C19.7984 17.3367 19.6844 17.3646 19.5593 17.3227C19.4981 17.3004 19.2895 17.1051 18.9113 16.7174L18.3579 16.1399L19.1616 15.3476C19.6065 14.9124 20.2072 14.3266 20.4964 14.0449L21.0248 13.5315L21.8312 13.6682C22.2734 13.7408 22.6377 13.7994 22.6377 13.7966C22.6404 13.7938 22.6182 13.4869 22.5904 13.1131L22.5403 12.4352L22.7517 12.1646C23.6082 11.0711 24.7205 10.0361 25.6159 9.50325C26.8006 8.79467 27.6877 8.80583 28.3578 9.53394C28.6637 9.86312 28.8473 10.276 28.8723 10.6944C28.8918 10.9818 28.8473 11.1854 28.711 11.4616C28.572 11.7406 28.3773 11.9219 28.0325 12.0921C27.6654 12.2734 27.3846 12.3376 27.0203 12.318C26.3862 12.2874 26.0164 12.0251 26.0164 11.6095C26.0192 11.1659 26.4474 10.753 26.7477 10.9065C26.7811 10.9232 26.9174 11.0432 27.0481 11.1715C27.3623 11.4783 27.4735 11.5202 27.671 11.403C27.874 11.2803 28.0464 10.9623 28.0464 10.7112C28.0436 10.4573 27.8295 10.2258 27.4847 10.1002C27.3095 10.0389 27.2372 10.0305 26.948 10.0305C26.5308 10.0333 26.2778 10.0947 25.8885 10.2899C25.3406 10.5661 24.9708 11.0013 24.79 11.5927C24.5314 12.4268 24.8095 13.194 25.4908 13.5427C25.9302 13.7659 26.6337 13.8049 27.4068 13.6487C27.963 13.5371 28.8473 13.1605 29.1726 12.8983C29.9068 12.3097 30.4824 11.4672 30.7049 10.661C30.9718 9.68737 30.7494 8.84489 30.0347 8.13073C29.6843 7.77923 29.1699 7.43889 28.6721 7.22966C28.4607 7.14039 28.4079 7.09297 28.4079 6.99254C28.4079 6.79447 28.6665 6.50435 29.0197 6.30628C29.3423 6.12495 29.5091 6.111 29.751 6.25328ZM11.0304 11.6457C11.2445 11.7071 11.3975 11.8047 11.4559 11.9135C11.5059 12.0056 11.5059 12.014 11.4587 12.1116C11.3697 12.2985 11.0276 12.5607 10.249 13.035C9.64278 13.4032 9.08661 13.8942 8.82522 14.2959C8.62778 14.5972 8.44146 14.9933 8.39697 15.197C8.26627 15.8247 8.46927 16.4942 8.95591 17.0103C9.47593 17.5654 10.2045 17.6547 11.1389 17.2725C11.5866 17.0884 11.8702 16.8764 12.101 16.55C12.4125 16.112 12.6072 15.2611 12.4904 14.8539C12.3736 14.4577 12.0037 14.282 11.4587 14.3629C11.1556 14.4075 10.9943 14.4828 10.8497 14.6446C10.7329 14.773 10.6383 14.9766 10.6383 15.0938C10.6383 15.1245 10.6689 15.1775 10.7078 15.2137C10.769 15.2779 10.7968 15.2835 11.0415 15.2835C11.2696 15.2835 11.3141 15.2918 11.3613 15.3393C11.4336 15.4118 11.4336 15.5457 11.3613 15.7382C11.1639 16.2654 10.477 16.4635 10.0655 16.1092C9.843 15.9195 9.75402 15.5596 9.8291 15.1579C9.92087 14.6642 10.3908 14.1034 11.1361 13.6041C11.7256 13.2079 12.2957 12.9708 12.7128 12.9485C12.9603 12.9346 12.9715 12.9346 13.1717 13.0322C13.561 13.2219 13.8641 13.4925 13.8641 13.6543C13.8641 13.7129 13.6861 14.3406 13.4637 15.0575C13.408 15.2333 13.3691 15.3811 13.3719 15.3867C13.3775 15.3895 13.5221 15.342 13.6973 15.2807C14.7345 14.9124 14.8235 14.8845 15.0376 14.8706C15.3963 14.8483 15.4631 14.8985 16.3029 15.8135C16.7006 16.2459 16.7228 16.2766 16.6783 16.3212C16.6533 16.3463 16.111 16.8262 15.477 17.3897L14.3229 18.4135L14.1144 18.3967C14.0004 18.3884 13.6472 18.3744 13.333 18.3633L12.7601 18.3465L12.7712 18.5362C12.7796 18.6422 12.799 18.9854 12.8185 19.2978L12.8519 19.8641L12.2095 20.4834C10.5215 22.1126 9.94867 22.6008 9.4231 22.8686C8.97816 23.0918 8.48873 23.1699 8.02989 23.0862C7.47651 22.983 7.1289 22.6845 7.00654 22.2019C6.87028 21.6635 7.15949 21.0442 7.77128 20.5727C8.10776 20.3133 8.38862 20.1905 8.6528 20.1905C8.95035 20.1877 9.10886 20.3272 9.10886 20.5922C9.10886 20.8768 8.96148 21.0386 8.61387 21.1418C8.14669 21.2813 7.94091 21.4347 7.94091 21.6439C7.94091 21.7862 8.04658 21.9508 8.19674 22.0429C8.49708 22.2298 9.12276 22.1544 9.52599 21.8838C9.70674 21.7639 10.0961 21.3789 10.2379 21.1808C10.655 20.5978 10.7801 19.7386 10.516 19.2894C10.4214 19.1304 10.1906 18.9045 10.0293 18.818C9.37582 18.4609 8.41921 18.6952 7.39864 19.4624C6.30855 20.2826 5.68843 21.206 5.46596 22.3386C5.41312 22.6092 5.40478 22.7152 5.41868 23.0639C5.43815 23.6162 5.52436 23.9343 5.76629 24.3332C5.90533 24.5564 6.31968 24.8995 6.65616 25.0697C6.94537 25.2119 6.93702 25.1896 6.80354 25.4658C6.6645 25.7587 6.3169 26.0265 5.96929 26.1074C5.60778 26.1911 5.18231 26.0544 5.00434 25.795C4.77353 25.4546 4.62058 24.7795 4.58721 23.9594C4.55384 23.1169 4.73182 22.1126 5.23237 20.3328C5.84415 18.1568 6.65616 16.377 7.89919 14.4884C8.84468 13.0489 9.86803 11.855 10.3046 11.6792C10.516 11.5927 10.8052 11.5788 11.0304 11.6457ZM18.2662 17.9811C18.4886 18.2154 18.5637 18.3131 18.5665 18.3716C18.5832 18.6813 18.5053 18.9965 18.1967 19.8948C18.0771 20.2463 17.9797 20.542 17.9797 20.5532C17.9797 20.5643 18.4692 20.489 19.0671 20.383C20.3518 20.157 20.2851 20.1542 20.5659 20.4388C20.8663 20.7429 21.0971 21.2757 21.2278 21.9647C21.3001 22.3581 21.2917 23.2592 21.2083 23.6748C20.9692 24.8911 20.2434 25.9875 19.4008 26.4115C19.0587 26.5845 18.8112 26.6402 18.4136 26.6402C18.1077 26.6402 17.8463 26.5677 17.6961 26.4422C17.3485 26.1521 17.2901 25.2956 17.5821 24.7321C17.6377 24.6289 17.7156 24.5145 17.7601 24.4782C17.8769 24.3778 18.0715 24.3109 18.1827 24.3332C18.3997 24.375 18.4441 24.5815 18.3274 25.0306C18.2662 25.2761 18.2578 25.343 18.2856 25.4212C18.3691 25.6778 18.7055 25.7615 19.0198 25.6025C19.3034 25.4602 19.7261 24.9497 19.9402 24.4838C20.1182 24.0961 20.1627 23.884 20.1627 23.4293C20.1627 23.0778 20.1544 22.9997 20.0987 22.8351C19.8346 22.068 19.0114 21.9731 17.8324 22.5729C16.6672 23.1643 15.8746 24.0403 15.5382 25.1059C15.1739 26.2525 15.2573 27.4241 15.7495 28.0937C16.2556 28.7799 17.3151 29.1426 18.522 29.0366C19.1533 28.9836 19.512 28.8915 20.1349 28.6237C20.7717 28.3503 21.1861 28.0741 21.6282 27.6334C22.1594 27.1061 22.4764 26.6319 22.9575 25.6443C23.3523 24.8297 23.5275 24.5173 23.5804 24.5173C23.5998 24.5173 23.6916 24.5564 23.7861 24.601C24.1198 24.7712 24.3979 25.1701 24.5175 25.6611C24.5982 25.9819 24.6037 26.498 24.5314 26.7323C24.2339 27.7171 22.8963 28.8106 20.5242 30.013C19.3869 30.5876 18.4747 30.9754 17.5432 31.2851C15.0154 32.122 12.6155 32.2866 10.5438 31.7677C9.09774 31.405 7.94647 30.7857 7.19286 29.9655C6.70343 29.4355 6.46706 28.8971 6.45872 28.2973C6.45316 28.0239 6.45594 28.01 6.55605 27.8091C6.6784 27.5608 6.82857 27.3823 7.05382 27.2066C7.23457 27.0671 7.60721 26.869 7.74347 26.8439L7.82967 26.8244V27.1312C7.82967 27.678 7.93256 28.0937 8.23011 28.752C8.48039 29.3044 8.6528 29.5192 8.99207 29.7005C9.26737 29.8456 9.46203 29.8846 9.91531 29.8846C11.0471 29.8791 11.8063 29.5415 12.7935 28.593C13.3552 28.0518 13.6945 27.6027 13.9892 27.0001C14.5343 25.8982 14.6928 24.5647 14.3758 23.7808C14.1867 23.3122 13.8613 23.0192 13.4136 22.9132C13.1884 22.8602 12.8352 22.8602 12.6266 22.9132C11.9926 23.075 11.3391 23.6804 10.9971 24.4225C10.5938 25.2956 10.6995 26.1604 11.2445 26.4394C11.4364 26.537 11.67 26.5287 11.7785 26.4199C11.873 26.3222 11.8675 26.2776 11.7089 25.9568C11.5699 25.6694 11.5588 25.4491 11.6728 25.2119C11.7729 25.0111 11.873 24.9525 12.1122 24.9525C12.5154 24.9553 12.7017 25.2175 12.6989 25.7866C12.6961 26.5147 12.3096 27.1535 11.6784 27.4799C10.8246 27.9235 10.2462 27.8482 9.97926 27.2596C9.70396 26.6598 9.84578 25.4574 10.3046 24.4671C10.6355 23.7557 11.1722 23.0695 12.0176 22.2744C12.2596 22.0429 12.7045 21.6132 13.0076 21.3148L13.5526 20.7708L14.3285 20.8461C14.754 20.8851 15.1099 20.9186 15.1238 20.9186C15.1349 20.9186 15.1433 20.5504 15.1433 20.1012L15.1461 19.2867L16.3168 18.2266L17.4875 17.1637L17.7267 17.4176C17.8602 17.5543 18.1021 17.8081 18.2662 17.9811Z" fill="white"/>
</svg>
